<?xml version="1.0" standalone="no"?>
<!DOCTYPE svg PUBLIC "-//W3C//DTD SVG 20010904//EN"
 "http://www.w3.org/TR/2001/REC-SVG-20010904/DTD/svg10.dtd">
<svg version="1.0" xmlns="http://www.w3.org/2000/svg"
 width="592.000000pt" height="592.000000pt" viewBox="0 0 592.000000 592.000000"
 preserveAspectRatio="xMidYMid meet">
<metadata>
Created by potrace 1.14, written by Peter Selinger 2001-2017
</metadata>
<g transform="translate(0.000000,592.000000) scale(0.100000,-0.100000)"
fill="#000000" stroke="none">
<path d="M2485 5909 c-22 -3 -125 -35 -230 -71 -169 -58 -210 -73 -290 -104
-11 -4 -22 -8 -25 -9 -3 -1 -16 -6 -30 -12 -14 -6 -45 -19 -70 -29 -25 -9 -54
-23 -65 -31 -11 -7 -27 -13 -36 -13 -10 0 -19 -3 -21 -7 -1 -5 -29 -21 -61
-38 -159 -82 -294 -183 -428 -317 -540 -541 -645 -1343 -263 -2004 15 -27 31
-51 34 -54 3 -3 22 -30 43 -60 88 -130 253 -293 407 -402 168 -120 322 -202
745 -398 39 -18 102 -47 140 -65 39 -18 93 -42 120 -55 240 -106 598 -287 695
-350 348 -227 570 -528 627 -850 16 -92 8 -289 -16 -380 -12 -46 -25 -89 -29
-95 -4 -5 -8 -19 -9 -29 -2 -11 -9 -26 -15 -33 -6 -8 -22 -35 -34 -61 -13 -26
-29 -56 -36 -67 -63 -99 -226 -264 -287 -291 -45 -20 -48 -25 -26 -48 8 -8 15
-19 15 -25 0 -26 108 -11 222 30 62 22 118 42 123 43 10 3 16 5 60 22 11 4 26
8 33 10 41 8 306 115 412 166 113 55 281 157 336 204 12 11 45 39 73 62 66 57
124 114 184 182 61 70 57 65 108 140 159 233 247 458 285 730 9 64 9 346 0
405 -39 254 -127 488 -257 690 -29 44 -55 82 -58 85 -3 3 -24 28 -46 55 -40
50 -180 192 -226 230 -143 115 -279 203 -464 297 -73 38 -228 113 -235 114 -3
0 -52 23 -110 51 -58 28 -127 61 -155 73 -351 157 -775 364 -783 383 -2 4 -8
7 -13 7 -6 0 -38 19 -72 42 -259 175 -441 384 -538 621 -30 73 -60 165 -65
202 -1 11 -5 37 -9 57 -22 129 -7 286 41 422 27 78 110 236 125 236 5 0 9 5 9
11 0 14 92 122 145 169 66 59 89 83 124 127 l32 42 -48 -2 c-26 -1 -66 -5 -88
-8z"/>
<path d="M3040 5712 c-207 -17 -406 -144 -521 -334 -35 -57 -100 -208 -97
-227 0 -3 -1 -8 -2 -11 -17 -45 -19 -224 -2 -295 14 -62 65 -180 89 -203 7 -7
13 -17 13 -22 0 -12 149 -160 160 -160 5 0 15 -6 22 -13 39 -37 415 -237 446
-237 7 0 12 -4 12 -10 0 -5 5 -10 11 -10 6 0 40 -13 76 -30 35 -16 66 -30 68
-30 3 0 63 -27 190 -84 17 -8 104 -46 195 -86 360 -157 760 -349 801 -386 8
-8 19 -14 23 -14 13 0 197 -129 261 -184 84 -71 270 -264 270 -280 0 -4 9 -17
21 -29 57 -61 190 -319 219 -427 1 -3 4 -12 8 -20 3 -8 9 -28 13 -45 4 -16 8
-32 9 -35 37 -130 59 -317 57 -495 -3 -310 -6 -287 34 -299 17 -5 24 1 40 36
10 24 22 46 27 49 5 3 10 12 11 20 1 8 17 44 34 82 18 37 32 72 32 77 0 6 4
18 10 28 16 29 79 243 94 322 2 14 10 50 16 80 6 30 13 69 15 85 3 17 7 44 10
60 14 80 17 137 20 350 3 215 -9 378 -39 525 -2 14 -9 49 -15 78 -31 155 -104
378 -179 549 -53 118 -169 336 -184 341 -4 2 -8 8 -8 13 0 9 -135 206 -149
219 -3 3 -24 28 -46 55 -79 100 -207 231 -309 320 -32 28 -74 65 -94 82 -21
18 -41 33 -45 33 -4 0 -18 9 -30 20 -27 26 -219 154 -317 212 -261 154 -577
267 -860 307 -143 21 -318 31 -410 23z"/>
<path d="M459 4127 c-20 -34 -40 -73 -44 -87 -4 -14 -11 -29 -15 -35 -14 -18
-88 -247 -115 -355 -30 -118 -31 -122 -39 -176 -3 -22 -8 -50 -11 -64 -22
-123 -28 -216 -29 -435 0 -198 3 -293 12 -308 2 -4 5 -31 7 -60 4 -59 10 -99
31 -207 22 -110 21 -108 49 -200 14 -47 27 -92 29 -100 2 -9 25 -70 51 -135
183 -463 510 -891 915 -1200 36 -27 67 -52 70 -55 3 -3 12 -9 21 -15 9 -5 49
-31 88 -58 39 -26 74 -47 77 -47 3 0 18 -9 33 -19 33 -24 244 -130 326 -164
113 -47 260 -94 390 -125 199 -47 272 -56 460 -56 85 0 162 5 195 13 67 17
184 62 188 73 2 4 12 8 22 8 10 0 20 3 22 8 2 4 21 20 43 36 115 85 201 206
250 351 66 197 50 389 -46 551 -43 72 -145 177 -226 232 -51 35 -313 176 -320
174 -2 -1 -42 17 -89 39 -48 22 -147 67 -220 100 -73 32 -141 63 -151 68 -35
20 -298 143 -301 142 -1 -1 -15 5 -30 13 -15 8 -151 75 -302 150 -443 217
-612 327 -811 527 -84 84 -199 228 -199 249 0 5 -3 10 -7 10 -5 0 -13 10 -19
23 -6 12 -28 54 -48 92 -35 66 -102 233 -109 272 -2 10 -7 25 -10 33 -5 15
-12 45 -23 105 -3 17 -8 41 -10 55 -15 71 -18 147 -18 378 0 194 -2 252 -12
252 -7 0 -18 2 -26 5 -8 3 -27 -19 -49 -58z"/>
</g>
</svg>
