<?xml version="1.0" encoding="UTF-8"?><svg xmlns="http://www.w3.org/2000/svg" viewBox="0 0 266.52 74.29"><defs><style>.d{letter-spacing:-.02em;}.e{fill:#00af9a;}.f{font-family:Raleway-Thin, Raleway;font-size:29.05px;}.g{letter-spacing:0em;}.h{letter-spacing:.04em;}.i{fill:#f5c55b;}.j{letter-spacing:-.04em;}.k{letter-spacing:-.02em;}.l{fill:#ff9015;}.m{letter-spacing:-.04em;}</style></defs><g id="a"/><g id="b"><g id="c"><g><path class="l" d="M39.01,73.49c.41-.22,.88-.38,1.23-.68,5.5-4.55,6.36-11.52,2.15-17.3-2.25-3.08-5.33-5.15-8.69-6.79-4.54-2.22-9.2-4.2-13.72-6.46-6.16-3.08-10.83-7.58-12.6-14.47-2.42-9.42,2.06-19.16,11.19-23.89,2.97-1.54,6.25-2.48,9.41-3.63,.58-.21,1.26-.15,2.41-.27-.6,.75-.81,1.14-1.13,1.39-5.56,4.56-6.53,11.06-2.55,17.09,2.16,3.26,5.27,5.4,8.69,7.08,4.59,2.26,9.32,4.27,13.9,6.55,6.24,3.11,10.89,7.68,12.68,14.66,2.34,9.11-1.96,18.66-10.89,23.49-3.11,1.68-6.61,2.66-9.95,3.9-.51,.19-1.12,.1-1.68,.13l-.45-.81Z"/><path class="e" d="M4.36,21.87c0,.56,.04,1.12,0,1.67-.69,8.2,2.15,14.97,8.92,19.58,4.08,2.77,8.77,4.67,13.23,6.87,3.38,1.67,6.93,3.01,10.23,4.83,4.35,2.39,5.86,6.16,4.55,10.32-1.34,4.27-5.04,6.66-9.85,6.38-15.1-.9-28.83-13.74-31.02-28.95-.93-6.48-.31-12.76,2.19-18.83,.29-.7,.72-1.35,1.08-2.03l.68,.17Z"/><path class="i" d="M65.05,52.25c-.03-.55-.12-1.11-.08-1.66,.77-10.18-3.71-17.45-12.57-22.04-4.96-2.57-10.18-4.62-15.26-6.97-1.95-.91-3.92-1.85-5.69-3.04-3.32-2.24-4.5-5.73-3.43-9.35,1.15-3.88,4.34-6.56,8.25-6.61,7.24-.1,13.6,2.56,19.29,6.8,12.29,9.16,17.02,25.43,11.69,39.78-.42,1.13-1.02,2.2-1.54,3.3l-.65-.2Z"/></g><text class="f" transform="translate(72.42 49.17)"><tspan class="d" x="0" y="0">S</tspan><tspan class="j" x="16.91" y="0">O</tspan><tspan class="k" x="37.74" y="0">P</tspan><tspan class="m" x="55.14" y="0">RI</tspan><tspan x="77.8" y="0">S</tspan></text><text class="f" transform="translate(173.14 49.17)"><tspan class="d" x="0" y="0">S</tspan><tspan class="j" x="16.91" y="0">O</tspan><tspan class="h" x="37.74" y="0">L</tspan><tspan class="d" x="55.72" y="0">A</tspan><tspan class="g" x="74.72" y="0">R</tspan></text></g></g></svg>